<?xml version="1.0" encoding="utf-8"?>
<!-- Generator: Adobe Illustrator 26.0.0, SVG Export Plug-In . SVG Version: 6.00 Build 0)  -->
<svg version="1.1" id="Layer_1" xmlns="http://www.w3.org/2000/svg" xmlns:xlink="http://www.w3.org/1999/xlink" x="0px" y="0px"
	 viewBox="0 0 180.6 40" style="enable-background:new 0 0 180.6 40;" xml:space="preserve">
<style type="text/css">
	.st0{fill:#FF0000;}
</style>
<g>
	<polygon class="st0" points="37.6,36.9 38.8,37.2 38.5,29.7 46.6,30.6 46,27 52.8,20.8 51,19.3 52.2,14.5 48.1,14.8 47.2,12.4 
		47.2,12.4 45.4,13.9 43,16.3 43,16.3 42.4,16.6 42.1,16.3 42.1,16 43.6,6.4 40.6,7.9 37.6,2.8 34.9,7.9 31.6,6.4 33.4,16 33.4,16 
		33.4,16.3 33.1,16.6 32.5,16.3 32.5,16.3 30.1,13.9 28.4,12.4 27.5,14.8 23.3,14.5 24.5,19.3 22.7,20.8 29.5,27 29,30.6 36.7,29.7 
		36.7,37.2 	"/>
	<polygon class="st0" points="56.1,0 75.8,0 75.8,40 56.1,40 	"/>
	<polygon class="st0" points="0,0 19.7,0 19.7,40 0,40 	"/>
</g>
<g>
	<path d="M112.5,25.1L112.5,25.1l-0.9-0.6l-1.2-0.3h-2.1h-5.1v15.2h5.1l0,0l2.1-0.3l1.2-0.3l0.9-0.3l0,0L114,37l0.9-1.5l0.6-1.8
		l0.3-2.1l0,0l-0.3-2.1l-0.6-1.8l-0.9-1.5L112.5,25.1L112.5,25.1L112.5,25.1z M112.2,35.8L112.2,35.8l-0.6,0.6L111,37l-1.2,0.3
		l-1.5,0.3h-3V26h3l0,0h1.5l1.2,0.6l0.6,0.6l0.6,0.6l0,0l0.6,0.9l0.3,0.9l0.3,2.1l0,0l-0.3,2l-0.3,1.2L112.2,35.8L112.2,35.8
		L112.2,35.8z"/>
	<path d="M122.1,28.4L122.1,28.4l-1.2,0.3L120,29l-0.9,0.6l-0.6,0.6l-0.6,0.9l-0.3,0.9l-0.3,2.1l0,0l0.3,2.4l0.3,0.9l0.6,0.6
		l0.6,0.9l0.6,0.3l1.2,0.3l1.2,0.2l0,0l1.8-0.3l1.2-0.6l1.2-1.2l0.3-1.5h-2.1l0,0l-0.3,0.9l-0.3,0.6l-0.9,0.3l-0.9,0.3l0,0h-1
		l-0.6-0.3l-0.6-0.9l-0.6-1.2v-1.5h7.5v-0.9l0,0l-0.3-2.1l-0.3-0.9l-0.6-0.6l-0.6-0.6l-0.9-0.3l-0.9-0.3L122.1,28.4L122.1,28.4
		L122.1,28.4z M119.4,33.1L119.4,33.1l0.3-1.2l0.3-1.2l0.9-0.6l1.2-0.3l0,0l1.2,0.3l0.9,0.6l0.3,0.9l0.3,1.5H119.4L119.4,33.1z"/>
	<polygon points="129.8,26.9 129.8,28.7 127.7,28.7 127.7,30.2 129.8,30.2 129.8,39.4 129.8,39.4 131.9,39.4 131.9,30.2 134.3,30.2 
		134.3,28.7 131.9,28.7 131.9,27.2 131.9,27.2 131.9,26.3 132.2,26 132.8,25.7 133.7,25.7 133.7,25.7 134.6,25.7 134.6,23.9 
		134.6,23.9 133.1,23.9 133.1,23.9 131.9,23.9 131,24.5 130.1,25.4 	"/>
	<path d="M140,28.4L140,28.4l-1.2,0.3l-0.9,0.3l-0.9,0.6l-0.6,0.6l-0.6,0.9l-0.3,0.9l-0.3,2.1l0,0l0.3,2.4l0.3,0.9l0.3,0.6l0.9,0.9
		l0.6,0.3l1.2,0.3l1.2,0.3l0,0l1.5-0.3l1.5-0.6l1.1-1.2l0.3-1.5h-2.1l0,0l-0.3,0.9l-0.3,0.6l-0.9,0.3l-0.9,0.3l0,0H139l-0.6-0.3
		l-0.9-0.9l-0.3-1.2v-1.5h7.5v-0.9l0,0l-0.3-2.1l-0.3-0.9l-0.6-0.6l-0.6-0.6L142,29l-0.9-0.3L140,28.4L140,28.4L140,28.4z
		 M137.3,33.1L137.3,33.1v-1.2l0.6-1.2l0.9-0.6l1.2-0.3l0,0l1.2,0.3l0.9,0.6l0.3,0.9l0.3,1.5H137.3L137.3,33.1z"/>
	<polygon points="152.5,28.4 152.5,28.4 151.6,28.7 150.7,29 149.8,29.6 149.2,30.2 149.2,30.2 149.2,28.7 147.1,28.7 147.1,39.4 
		149.2,39.4 149.2,33.4 149.2,33.4 149.2,32.2 149.5,31.3 150.1,30.7 150.1,30.7 150.7,30.2 151.3,30.2 151.9,29.8 151.9,29.8 
		153.1,30.2 153.7,30.7 154.3,31.6 154.3,32.5 154.3,39.4 156.4,39.4 156.4,31.9 156.4,31.9 156.1,30.7 155.8,30.2 155.2,29.2 
		154.6,29 153.4,28.7 	"/>
	<polygon points="163.2,38.2 163.2,38.2 162.1,37.9 161.2,37 160.9,35.8 160.6,34 160.6,34 160.9,32.2 161.2,31 162.1,30.2 
		163.2,29.8 163.2,29.8 164.1,30.2 164.7,30.5 165.3,31.3 165.3,32.2 165.3,32.2 167.4,32.2 167.4,32.2 167.1,30.5 166.2,29.6 
		165,28.7 163.6,28.4 163.6,28.4 162.4,28.7 161.2,29 160.3,29.6 159.7,30.2 159.1,31 158.8,31.9 158.5,34 158.5,34 158.8,36.4 
		159.1,37.3 159.7,37.9 160.3,38.8 161.2,39.1 162.1,39.4 163.2,39.7 163.2,39.7 165,39.4 166.2,38.5 167.1,37.3 167.4,35.8 
		165.6,35.8 165.6,35.8 165.3,36.7 164.7,37.6 164.1,37.9 	"/>
	<path d="M173.7,28.4L173.7,28.4l-1.2,0.3l-0.9,0.3l-0.9,0.6l-0.6,0.6l-0.6,0.9l-0.3,0.9l-0.3,2.1l0,0l0.3,2.4l0.3,0.9l0.6,0.6
		l0.6,0.9l0.6,0.3l1.2,0.3l1.2,0.3l0,0l1.8-0.3l1.2-0.6l1.2-1.2l0.3-1.5h-2.1l0,0l-0.3,0.9l-0.3,0.6l-0.9,0.3l-0.9,0.3l0,0h-0.9
		l-0.6-0.3l-0.6-0.9l-0.6-1.2v-1.5h7.5v-0.9l0,0l-0.3-2.1l-0.3-0.9l-0.6-0.6l-0.6-0.6l-0.9-0.3l-0.9-0.3L173.7,28.4L173.7,28.4
		L173.7,28.4z M171,33.1L171,33.1v-1.2l0.6-1.2l0.9-0.6l1.2-0.3l0,0l1.2,0.3l0.9,0.6l0.3,1l0.3,1.5L171,33.1L171,33.1z"/>
	<polygon points="113.7,12.5 113.7,12.5 106.2,0 103.5,0 103.5,15.2 105.3,15.2 105.3,2.4 105.3,2.4 113.1,15.2 115.8,15.2 115.8,0 
		113.7,0 	"/>
	<path d="M127.4,8.1L127.4,8.1V6.9l-0.3-0.6l-0.6-0.6l-0.6-0.6l-1.2-0.6h-1.8l0,0h-1.2l-1.5,0.6L119.3,6l-0.2,1.5h2.1l0,0l0.3-0.6
		l0.3-0.6l0.6-0.3h0.9l0,0h1.2l0.6,0.6l0.3,0.9v1.2h-1.8l0,0L121.8,9L120,9.6l-0.6,0.6l-0.6,0.6l-0.3,0.9v0.9l0,0l0.3,1.5l0.9,0.9
		l1.2,0.6h1.2l0,0h1.2l0.9-0.3l0.6-0.6l0.6-0.9l0,0l0,0l0.3,1.5l0,0h0.3h0.3h1.2l0,0v-2.1L127.4,8.1L127.4,8.1z M122.7,14L122.7,14
		h-0.9l-0.6-0.3l-0.3-0.6l-0.3-0.9l0,0l0.3-0.9l0.6-0.6l0.9-0.6h1.2h1.8l0,0v1.5l-0.3,1.2l-0.6,0.6l-0.4,0.3l-0.6,0.3H122.7
		L122.7,14L122.7,14z"/>
	<polygon points="132.5,1.8 130.7,2.4 130.7,4.8 128.9,4.8 128.9,6.3 130.7,6.3 130.7,12.8 130.7,12.8 130.7,14 131,14.9 131,14.9 
		131.6,15.2 132.2,15.5 132.2,15.5 133.7,15.5 133.7,15.5 134.9,15.5 134.9,14 134.9,14 134,14 134,14 133.1,13.7 132.8,13.4 
		132.5,12.8 132.5,6.3 135.2,6.3 135.2,4.8 132.5,4.8 	"/>
	<polygon points="139.1,15.2 139.1,4.8 137.3,4.8 137.3,15.2 	"/>
	<polygon points="139.4,0 137,0 137,2.4 139.4,2.4 	"/>
	<path d="M152.2,10.1L152.2,10.1V9l-0.3-1.2l-0.3-0.9L151,6l-0.9-0.6l-0.9-0.6l-0.9-0.3h-1.2l0,0h-1.2l-1.2,0.3l-0.9,0.6L143.2,6
		l-0.6,0.9L142,7.8L141.7,9v1.2l0,0v0.9l0.3,1.2l0.6,0.9l0.6,0.9l0.6,0.6l0.9,0.6l1.2,0.3h1.2l0,0h1.2l0.9-0.3l0.9-0.6l0.9-0.6
		l0.6-0.9l0.3-0.9l0.3-1.2L152.2,10.1L152.2,10.1L152.2,10.1z M147.1,14L147.1,14h-0.9l-0.6-0.3l-0.6-0.3l-0.6-0.6l-0.3-1.2
		l-0.3-1.5l0,0l0.3-1.8l0.3-1.2l0.6-0.6l0.6-0.3l0.6-0.3h0.9l0,0h0.6l0.9,0.3l0.9,0.9l0.6,1.2v1.8l0,0v1.5l-0.6,1.2l-0.9,0.9
		l-0.9,0.3L147.1,14L147.1,14L147.1,14z"/>
	<polygon points="159.7,6 159.7,6 160.9,6.3 161.5,6.6 162.1,7.5 162.1,8.7 162.1,15.2 164.1,15.2 164.1,8.1 164.1,8.1 163.9,6.9 
		163.6,6 163,5.4 162.4,5.1 161.2,4.5 160.3,4.5 160.3,4.5 159.4,4.5 158.5,4.8 157.6,5.4 157,6.3 157,6.3 157,4.8 154.9,4.8 
		154.9,15.2 157,15.2 157,9.6 157,9.6 157,8.4 157.3,7.5 157.9,6.9 157.9,6.9 158.5,6.3 159.1,6 	"/>
	<path d="M166.5,12.5L166.5,12.5l0.3,1.5l0.9,0.9l1.2,0.6h1.2l0,0h1.2l0.9-0.3l0.9-0.6l0.3-0.9h0.3l0,0v1.5l0,0h0.3h0.3h1.2l0,0
		v-2.1v-5l0,0V6.9l-0.3-0.6l-0.6-0.6l-0.3-0.6l-1.5-0.6h-1.5l0,0h-1.5l-1.5,0.6L167.7,6l-0.6,1.5h2.1l0,0l0.3-0.6l0.3-0.6l0.6-0.3
		h0.9l0,0h1.2l0.6,0.6l0.3,0.9v1.2h-1.8l0,0L169.8,9l-1.5,0.6l-0.9,0.6l-0.3,0.5l-0.3,0.9L166.5,12.5L166.5,12.5L166.5,12.5z
		 M170.7,14L170.7,14h-0.9l-0.6-0.3l-0.3-0.6l-0.3-0.9l0,0l0.3-0.9l0.6-0.6l1.2-0.6h0.9h1.8l0,0v1.5l-0.3,1.2l-0.3,0.6l-0.6,0.3
		l-0.6,0.3H170.7L170.7,14L170.7,14z"/>
	<polygon points="178.8,0 178.8,15.2 180.6,15.2 180.6,0 	"/>
</g>
</svg>
