<?xml version="1.0" encoding="utf-8"?>
<!-- Generator: Adobe Illustrator 26.0.0, SVG Export Plug-In . SVG Version: 6.00 Build 0)  -->
<svg version="1.1" id="Layer_1" xmlns="http://www.w3.org/2000/svg" xmlns:xlink="http://www.w3.org/1999/xlink" x="0px" y="0px"
	 viewBox="0 0 189.6 40" style="enable-background:new 0 0 189.6 40;" xml:space="preserve">
<style type="text/css">
	.st0{fill:#FF0000;}
</style>
<g>
	<polygon class="st0" points="37.6,36.9 38.8,37.2 38.5,29.7 46.6,30.6 46,27 52.8,20.8 51,19.3 52.2,14.5 48.1,14.8 47.2,12.4 
		47.2,12.4 45.4,13.9 43,16.3 43,16.3 42.4,16.6 42.1,16.3 42.1,16 43.6,6.4 40.6,7.9 37.6,2.8 34.9,7.9 31.6,6.4 33.4,16 33.4,16 
		33.4,16.3 33.1,16.6 32.5,16.3 32.5,16.3 30.1,13.9 28.4,12.4 27.5,14.8 23.3,14.5 24.5,19.3 22.7,20.8 29.5,27 29,30.6 36.7,29.7 
		36.7,37.2 	"/>
	<polygon class="st0" points="56.1,0 75.8,0 75.8,40 56.1,40 	"/>
	<polygon class="st0" points="0,0 19.7,0 19.7,40 0,40 	"/>
</g>
<g>
	<polygon points="108.7,28.7 108.7,28.7 107.8,29 106.9,29.3 106.3,29.9 105.7,30.5 105.4,30.5 105.4,29 103.6,29 103.6,39.7 
		105.7,39.7 105.7,33.7 105.7,33.7 105.7,32.5 106,31.6 106.3,31 106.3,31 107.2,30.5 107.8,30.5 108.4,30.1 108.4,30.1 109.3,30.5 
		110.2,31 110.4,31.9 110.8,32.8 110.8,39.7 112.8,39.7 112.8,32.2 112.8,32.2 112.5,31 112.2,30.5 111.6,29.5 111,29.3 109.6,29 	
		"/>
	<path d="M124.2,32.2L124.2,32.2l-0.3-0.9v-0.9l-0.6-0.6l-0.6-0.3l-1.2-0.6l-1.8-0.3l0,0l-1.5,0.3l-1.2,0.6l-0.9,0.9l-0.3,1.5h2.1
		l0,0l0.3-0.9l0.3-0.3l0.6-0.6h0.9l0,0l1.2,0.3l0.6,0.6l0.3,0.9v1.2h-1.8l0,0h-1.8l-1.8,0.6l-0.6,0.6l-0.6,0.6l-0.3,0.9V37l0,0
		l0.3,1.2l0.9,0.9l1.2,0.6l1.2,0.3l0,0l1.2-0.3l0.9-0.3l0.6-0.6l0.6-0.9l0,0l0,0l0.3,1.5l0,0v0.3h0.6h1.2l0,0v-2.4L124.2,32.2
		L124.2,32.2z M119.4,38.5L119.4,38.5l-0.9-0.3l-0.6-0.3l-0.6-0.6v-0.9l0,0l0.3-0.9l0.6-0.6l0.9-0.3l0.9-0.3h2.1l0,0v1.5l-0.6,1.5
		l-0.3,0.3l-0.3,0.6l-0.6,0.3H119.4L119.4,38.5L119.4,38.5z"/>
	<polygon points="129.3,26.3 127.5,26.9 127.5,29 125.7,29 125.7,30.5 127.5,30.5 127.5,37 127.5,37 127.5,38.5 127.8,39.1 
		127.8,39.1 128.4,39.7 129,39.7 129,39.7 130.4,40 130.4,40 131.6,39.7 131.6,38.2 131.6,38.2 130.8,38.5 130.8,38.5 129.9,38.2 
		129.6,37.6 129.3,37.3 129.3,30.5 131.6,30.5 131.6,29 129.3,29 	"/>
	<polygon points="133.7,26.6 136.1,26.6 136.1,24.5 133.7,24.5 	"/>
	<polygon points="133.7,39.7 135.8,39.7 135.8,29 133.7,29 	"/>
	<path d="M172.2,32.2L172.2,32.2v-0.9l-0.3-0.9l-0.6-0.6l-0.6-0.3l-1.2-0.6l-1.5-0.3l0,0l-1.5,0.3l-1.5,0.6l-0.9,0.9l-0.3,1.5h2.1
		l0,0l0.3-0.9l0.3-0.3l0.6-0.6h0.9l0,0l1.2,0.3l0.6,0.6l0.3,0.9v1.2h-1.8l0,0h-1.8l-1.8,0.6l-0.6,0.6l-0.3,0.6l-0.6,0.9V37l0,0
		l0.3,1.2l0.9,0.9l1.2,0.6l1.2,0.3l0,0l1.2-0.3l0.9-0.3l0.6-0.6l0.6-0.9h0.3l0,0v1.5l0,0l0.3,0.3h0.3h1.2l0,0v-2.4L172.2,32.2
		L172.2,32.2z M167.5,38.5L167.5,38.5l-0.9-0.3l-0.6-0.3l-0.3-0.6l-0.3-0.9l0,0l0.3-0.9l0.6-0.6l0.9-0.3l1.2-0.3h1.8l0,0v1.5
		l-0.3,1.5l-0.6,0.3l-0.3,0.6l-0.6,0.3H167.5L167.5,38.5L167.5,38.5z"/>
	<polygon points="175.5,39.7 177.3,39.7 177.3,24.5 175.5,24.5 	"/>
	<path d="M184.8,28.7L184.8,28.7l-1.2,0.3l-0.9,0.3l-0.9,0.6l-0.6,0.6l-0.6,0.9l-0.3,0.9l-0.3,2.1l0,0l0.3,2.4l0.3,0.9l0.3,0.6
		l0.9,0.9l0.6,0.3l1.2,0.3l1.2,0.3l0,0l1.8-0.3l1.2-0.6L189,38l0.3-1.5h-2.1l0,0l-0.3,0.9l-0.3,0.6l-0.9,0.3l-0.9,0.3l0,0h-0.9
		l-0.6-0.3l-0.6-0.9l-0.6-1.2v-1.5h7.5v-0.9l0,0l-0.3-2.1l-0.3-0.9l-0.6-0.6l-0.6-0.6l-0.9-0.3L186,29L184.8,28.7L184.8,28.7
		L184.8,28.7z M182.1,33.4L182.1,33.4v-1.2l0.6-1.2l0.9-0.6l1.2-0.3l0,0l1.2,0.3l0.9,0.6l0.3,0.9l0.3,1.5H182.1L182.1,33.4z"/>
	<g>
		<path d="M112.5,1.2L112.5,1.2l-0.9-0.3l-0.9-0.3l-2.1-0.3h-5.1v15.2h5.1l0,0h2.1l0.9-0.3l0.9-0.6l0,0l1.5-1.2l1.2-1.5l0.6-1.8v-2
			l0,0V6l-0.6-1.8L114,2.7L112.5,1.2L112.5,1.2L112.5,1.2z M112.5,11.9L112.5,11.9l-0.6,0.6l-0.9,0.6l-0.9,0.6h-1.5h-3V2.1h3l0,0
			l1.5,0.3l0.9,0.3l0.9,0.6l0.6,0.6l0,0l0.6,0.9l0.3,1.2l0.3,2.1l0,0l-0.3,2.1l-0.3,0.9L112.5,11.9L112.5,11.9L112.5,11.9z"/>
		<polygon points="125.4,0.3 123.3,0.3 121.5,3.6 122.7,3.6 		"/>
		<path d="M122.1,15.8L122.1,15.8h1.8l1.5-0.9l0.9-1.2l0.6-1.5h-2.1l0,0l-0.3,1.2l-0.6,0.6l-0.6,0.3h-1.2l0,0h-0.6l-0.6-0.3
			l-0.9-0.9l-0.3-1.2v-1.2h7.5V9.6l0,0l-0.3-1.8l-0.6-0.9L126,6.3l-0.6-0.6l-0.9-0.6l-0.9-0.3h-1.2l0,0h-1.2l-0.9,0.3l-0.9,0.6
			l-0.6,0.6l-0.6,0.9l-0.3,0.9l-0.3,2.4l0,0v2.1l0.6,0.9l0.3,0.9l0.6,0.6l0.9,0.6l0.9,0.3L122.1,15.8L122.1,15.8L122.1,15.8z
			 M122.1,6.3L122.1,6.3h1.5l0.6,0.9l0.6,0.9v1.2h-5.1l0,0V8.1l0.6-0.9l0.9-0.9H122.1L122.1,6.3L122.1,6.3z"/>
		<polygon points="134.6,5.1 131.9,5.1 131.9,3.3 131.9,3.3 132.2,2.7 132.5,2.1 133.1,2.1 133.7,1.8 133.7,1.8 134.9,2.1 
			134.9,0.3 134.9,0.3 133.4,0 133.4,0 132.2,0.3 131,0.6 130.4,1.5 130.1,3 130.1,5.1 128.1,5.1 128.1,6.3 130.1,6.3 130.1,15.5 
			131.9,15.5 131.9,6.3 134.6,6.3 		"/>
		<path d="M144.8,12.2h-2.1l0,0l-0.3,1.2l-0.6,0.6l-0.6,0.3H140l0,0h-0.6l-0.6-0.3l-0.9-0.9l-0.3-1.2l-0.3-1.2h7.5V9.6l0,0l-0.3-1.8
			l-0.3-0.9l-0.6-0.6L143,5.7l-0.6-0.6l-1.2-0.3h-0.9l0,0h-1.2l-1.2,0.3l-0.6,0.6l-0.9,0.6l-0.3,0.9l-0.6,0.9l-0.3,2.4l0,0l0.3,2.1
			l0.3,0.9l0.6,0.9L137,15l0.9,0.6l0.9,0.3h1.2l0,0h1.8l1.5-0.9l0.9-1.2L144.8,12.2L144.8,12.2L144.8,12.2z M140,6.3L140,6.3h1.2
			l0.9,0.9l0.6,0.9v1.2h-5.4l0,0l0.3-1.2l0.6-0.9l0.9-0.9H140L140,6.3L140,6.3z"/>
		<polygon points="152.2,6.3 152.2,6.3 153.1,6.6 154,6.9 154.3,7.8 154.6,9 154.6,15.5 156.7,15.5 156.7,8.4 156.7,8.4 156.4,7.2 
			156.1,6.3 155.5,5.7 154.9,5.4 153.4,4.8 152.5,4.8 152.5,4.8 151.6,4.8 150.8,5.1 150.1,5.7 149.6,6.6 149.3,6.6 149.3,5.1 
			147.5,5.1 147.5,15.5 149.6,15.5 149.6,9.9 149.6,9.9 149.6,8.7 149.9,7.8 150.1,7.2 150.1,7.2 151,6.6 151.6,6.3 		"/>
		<polygon points="167.5,12.5 167.5,12.5 167.5,11.6 167.2,11 166.3,10.1 165.1,9.9 163.6,9.3 163.6,9.3 162.1,9 161.5,8.7 
			161.2,7.8 161.2,7.8 161.2,7.2 161.8,6.6 162.4,6.3 163,6.3 163,6.3 163.9,6.3 164.5,6.6 165.1,7.2 165.1,8.1 167.2,8.1 
			167.2,8.1 167.2,7.2 166.9,6.6 166.6,6 166,5.4 164.8,4.8 163.3,4.8 163.3,4.8 161.8,4.8 160.3,5.4 159.4,6.6 159.1,7.2 
			159.1,7.8 159.1,7.8 159.4,9.3 160,10.1 161.2,10.4 162.4,11 164.5,11.3 165.1,11.9 165.4,12.5 165.4,12.5 165.4,13.4 164.8,14 
			163.9,14.3 163,14.3 163,14.3 162.4,14.3 161.5,14 161.2,13.4 160.9,12.5 158.8,12.5 158.8,12.5 158.8,13.4 159.1,14 160,15.2 
			161.2,15.8 163,15.8 163,15.8 164.5,15.8 166,15.2 166.6,14.6 167.2,14 167.5,13.4 		"/>
		<path d="M174,4.8L174,4.8h-1.2l-0.9,0.3L171,5.7l-0.9,0.6l-0.3,0.9l-0.6,0.9l-0.3,2.4l0,0l0.3,2.1l0.6,0.9l0.3,0.9l0.6,0.6
			l0.9,0.6l0.9,0.3h1.2l0,0h1.8L177,15l0.9-1.2l0.6-1.5h-2.1l0,0l-0.3,1.2l-0.6,0.6l-0.6,0.3h-1.2l0,0h-0.6l-0.6-0.3l-0.9-0.9
			l-0.3-1.2v-1.2h7.2V9.6l0,0l-0.3-1.8l-0.3-0.9l-0.3-0.6l-0.9-0.6l-0.6-0.6l-0.9-0.3H174L174,4.8L174,4.8z M171.3,9.3L171.3,9.3
			V8.1l0.6-0.9l0.9-0.9h0.9l0,0h1.5l0.6,0.9l0.6,0.9v1.2H171.3L171.3,9.3z"/>
	</g>
	<g>
		<path d="M138.6,34.3c0-2,0.6-3.5,1.7-4.5c0.9-0.8,2.1-1.2,3.4-1.2c1.5,0,2.7,0.5,3.7,1.5c0.9,1,1.4,2.3,1.4,4.1
			c0,1.4-0.2,2.5-0.6,3.3s-1,1.4-1.8,1.9s-1.7,0.7-2.6,0.7c-1.5,0-2.8-0.5-3.7-1.5C139.1,37.5,138.6,36.1,138.6,34.3z M140.5,34.3
			c0,1.4,0.3,2.5,0.9,3.1c0.6,0.7,1.4,1,2.3,1s1.7-0.3,2.3-1s0.9-1.8,0.9-3.2c0-1.3-0.3-2.4-0.9-3.1s-1.4-1-2.3-1
			c-0.9,0-1.7,0.4-2.3,1S140.5,32.9,140.5,34.3z"/>
	</g>
	<g>
		<path d="M151.6,40V29.1h1.7v1.5c0.8-1.2,2-1.8,3.6-1.8c0.7,0,1.3,0.1,1.9,0.4c0.6,0.2,1,0.5,1.3,0.9s0.5,0.8,0.6,1.4
			c0.1,0.3,0.1,0.9,0.1,1.8V40h-1.9v-6.6c0-0.8-0.1-1.3-0.2-1.7c-0.1-0.4-0.4-0.7-0.8-0.9s-0.8-0.3-1.3-0.3c-0.8,0-1.5,0.3-2.1,0.8
			s-0.9,1.5-0.9,2.8v6h-2V40z"/>
	</g>
</g>
</svg>
