<?xml version="1.0" standalone="no"?>
<!DOCTYPE svg PUBLIC "-//W3C//DTD SVG 20010904//EN"
 "http://www.w3.org/TR/2001/REC-SVG-20010904/DTD/svg10.dtd">
<svg version="1.0" xmlns="http://www.w3.org/2000/svg"
 width="100%" height="100%" viewBox="0 0 100 100"
 preserveAspectRatio="xMidYMid meet">
<g transform="translate(0.000000,417.000000) scale(0.100000,-0.100000)"
fill="#000000" stroke="none">
<path d="M2452 4154 c-786 -122 -1412 -692 -1608 -1467 -57 -226 -71 -526 -34
-743 121 -710 692 -1243 1415 -1324 126 -14 3567 -14 3706 0 240 25 414 75
634 185 645 321 1035 1008 976 1722 -21 249 -76 446 -187 668 -220 442 -630
780 -1107 914 -226 63 -146 61 -2008 60 -1420 -1 -1709 -3 -1787 -15z m3586
-371 c146 -34 248 -71 373 -135 384 -197 661 -564 744 -990 9 -46 19 -141 22
-213 26 -611 -361 -1180 -942 -1385 -214 -75 -189 -73 -897 -77 l-638 -4 0
1061 0 1061 593 -4 c657 -3 638 -2 781 -73 177 -89 295 -226 362 -419 25 -72
28 -93 28 -210 0 -114 -4 -140 -27 -210 -38 -115 -91 -198 -183 -291 -67 -68
-97 -90 -175 -128 -136 -66 -193 -76 -451 -76 l-218 0 0 350 0 350 288 0 c282
0 290 1 332 23 110 58 120 235 19 308 l-34 24 -426 3 -425 3 -34 -23 c-19 -13
-45 -39 -57 -57 l-23 -34 0 -658 0 -659 398 0 c314 0 416 3 486 16 246 43 439
145 607 321 530 556 313 1479 -408 1743 -174 63 -84 60 -1883 60 -1797 0
-1715 3 -1902 -60 -187 -63 -336 -156 -484 -304 -191 -190 -305 -411 -349
-676 -23 -136 -16 -343 14 -448 73 -250 260 -466 498 -574 221 -100 514 -97
739 7 183 84 332 229 423 410 60 121 82 209 88 356 5 110 3 136 -15 195 -54
177 -175 301 -351 361 -82 28 -229 31 -312 7 -142 -42 -268 -145 -332 -272
-43 -88 -60 -164 -55 -252 3 -55 9 -74 31 -104 38 -50 81 -70 147 -70 101 0
165 58 180 162 16 114 65 173 157 188 83 13 175 -59 190 -149 3 -19 0 -66 -6
-103 -36 -206 -194 -376 -397 -429 -259 -67 -535 89 -626 353 -18 54 -22 88
-22 172 3 398 279 741 680 846 105 27 303 25 414 -4 317 -85 555 -324 642
-644 30 -108 31 -319 4 -448 -95 -447 -405 -796 -834 -940 -432 -145 -925 -27
-1252 300 -354 354 -458 855 -285 1376 158 477 541 856 1023 1013 104 35 241
64 342 74 19 2 780 3 1690 3 1655 -2 1655 -2 1748 -23z m-1799 -1057 c15 -8
42 -31 59 -50 118 -135 -47 -338 -208 -256 -125 64 -123 251 5 306 40 18 109
17 144 0z m0 -710 c106 -55 129 -187 48 -275 -99 -107 -289 -31 -289 117 0 73
30 121 97 156 38 20 107 20 144 2z m-5 -710 c46 -19 94 -81 102 -131 10 -71
-36 -153 -103 -181 -109 -47 -235 36 -235 154 0 125 120 206 236 158z"/>
</g>
</svg>
