<?xml version="1.0" encoding="utf-8"?>
<!-- Generator: Adobe Illustrator 25.3.1, SVG Export Plug-In . SVG Version: 6.00 Build 0)  -->
<svg version="1.1" id="Layer_1" xmlns="http://www.w3.org/2000/svg" xmlns:xlink="http://www.w3.org/1999/xlink" x="0px" y="0px"
	 viewBox="0 0 167.8 40" style="enable-background:new 0 0 167.8 40;" xml:space="preserve">
<style type="text/css">
	.st0{fill:#FF0000;}
</style>
<g id="wmms" transform="translate(-1, -1)">
	<path class="st0" d="M160.5,1h6.1v12.2h-6.1V1z M149.9,7.1l-0.4,0.1c0,0,2.1,1.8,2.1,1.9c0.1,0.1,0.2,0.1,0.1,0.5
		c-0.1,0.4-0.2,0.7-0.2,0.7s1.9-0.4,2.1-0.5c0.2,0,0.4,0,0.4,0.2s-0.1,2.2-0.1,2.2h0.6c0,0-0.1-2.1-0.1-2.2c0-0.2,0.1-0.2,0.4-0.2
		c0.2,0,2.1,0.5,2.1,0.5s-0.1-0.5-0.2-0.7c-0.1-0.4,0-0.4,0.1-0.5s2.1-1.9,2.1-1.9l-0.4-0.1c-0.2-0.1-0.1-0.2-0.1-0.4
		s0.4-1.3,0.4-1.3s-0.9,0.2-1.1,0.2c-0.1,0-0.2,0-0.2-0.1S157.2,5,157.2,5s-1.1,1.2-1.2,1.3c-0.2,0.2-0.5,0-0.4-0.2
		c0-0.2,0.6-2.7,0.6-2.7s-0.6,0.4-0.8,0.5C155.2,4,155,4,155,3.8c-0.1-0.2-0.8-1.5-0.8-1.6c0,0-0.7,1.4-0.8,1.6S153.2,4,153,3.9
		s-0.8-0.5-0.8-0.5s0.6,2.5,0.6,2.7c0,0.2-0.1,0.4-0.4,0.2l-1-1.3c0,0-0.1,0.4-0.2,0.5c0,0.1-0.1,0.2-0.2,0.1
		c-0.2,0-1.2-0.2-1.2-0.2s0.4,1.2,0.5,1.3C150.2,6.7,150.2,7,149.9,7.1z M142.1,1h6.1v12.2h-6.1V1z"/>
	<path d="M167.9,37.8c-0.5,1.1-1.4,1.4-2,1.4c-0.7,0-2.8-0.1-2.8-5.6c0,0,0-11.1,0-11.8c0-3.6-2.8-6.6-10.1-6.6c-7.9,0-8,3.9-8,4.8
		c-0.1,1.1,0.5,2.2,2.5,2.2c1.8,0,2.2-2,2.5-2.7c0.2-0.8,0.4-3.2,3.5-3.2c2.7,0,4.3,2.3,4.5,5.7c0,0.6,0,0.9,0,1.3
		c0,0.2,0,0.4,0,0.6l0,0l0,0V24c-0.2,1.2-0.8,1.8-1.9,2.2c-1.4,0.7-5.5,1.3-6,1.4c-1.6,0.4-6.2,1.5-6.1,6.3c0.1,4.7,4.8,6.3,8.1,6.2
		c3.2-0.1,5-1.4,5.9-2.1c0.5-0.4,0.5-0.4,0.8,0.1c0.5,0.5,2,2,5.6,2c3.8,0,4.2-1.8,4.5-2.3C168.9,37.6,168.1,37.2,167.9,37.8z
		 M153.2,39.1c-3.3,0-4.1-2.7-4.1-4.1c0-1.3,0.7-4,4-5.9c0,0,1.5-0.9,4.5-2.1c0.1,0,0.2,0,0.2,0s0.1,0.1,0.1,0.2l0,0l0,0v0.1l0,0
		l0,0v0.1l0,0l0,0l0,0v4.9C157.9,36.3,156,39.1,153.2,39.1z M142.4,39c-0.5-0.1-3.4,0.2-3.4-8.7s0-28,0-28c0-0.4,0-1.3-1.1-1.3
		s-8.1,0.4-8.6,0.5c-0.5,0-0.8,0.6,0,0.6c0.8,0.1,4.6,0.4,4.6,6.6c0,3,0,6.1,0,8.3c0,0.1,0,0.2,0,0.2c0,0.2,0,0.4-0.1,0.5
		c0,0,0,0,0,0.1l0,0c-0.1,0.1-0.2,0-0.6-0.2c-0.6-0.5-3.3-2.1-6.7-2.1c-5.5,0-12.3,4-12.3,12.2c0,8.8,6.2,13,12.7,13
		c3.2,0,5.4-1.4,6.2-1.9c0.9-0.6,0.8-0.5,0.9,0.4c0.1,0.6,0,1.8,1.6,1.6c1.8-0.2,6-0.7,6.8-0.8C143.4,39.6,143.1,39.1,142.4,39z
		 M127.9,39.4c-5.2,0-7.9-6.1-7.9-12c0-6.5,3.6-10.8,7.5-10.6c5,0.4,6.3,4.3,6.5,11.5c0,0.5,0,0.9,0,1.5
		C133.9,36.9,130.9,39.4,127.9,39.4z M114.2,37.8c-0.5,1.1-1.4,1.4-2,1.4c-0.7,0-2.8-0.1-2.8-5.6c0,0,0-11.1,0-11.8
		c0-3.6-2.8-6.6-10.1-6.6c-7.9,0-8,3.9-8,4.8c-0.1,1.1,0.5,2.2,2.5,2.2c1.8,0,2.2-2,2.5-2.7c0.2-0.8,0.4-3.2,3.5-3.2
		c2.7,0,4.5,2.3,4.5,5.9v0.1c0,0.1,0,0.2,0,0.2v0.4c0,0.1,0,0.4,0,0.5c-0.1,1.8-0.6,2.3-2,3s-5.5,1.3-6,1.4
		c-1.6,0.4-6.2,1.5-6.1,6.3c0.1,4.7,4.8,6.3,8.1,6.2c3.2-0.1,5-1.4,5.9-2.1c0.5-0.4,0.5-0.4,0.8,0.1c0.5,0.5,2,2,5.6,2
		c3.8,0,4.2-1.8,4.5-2.3C115.2,37.6,114.5,37.2,114.2,37.8z M99.6,39.1c-3.3,0-4.1-2.7-4.1-4.1c0-1.3,0.7-4,4-5.9
		c0,0,1.5-0.9,4.5-2.1c0.1,0,0.2,0,0.2,0v0.1l0,0l0,0c0,0.1,0,0.2,0,0.5v-0.1c0,0,0,0,0,0.1v4.9C104.2,36.3,102.3,39.1,99.6,39.1z
		 M88.4,39c-0.9-0.2-2.6-1.3-2.6-6.5v-9.4c0-2.2,0.2-8-8.6-8c-4.6,0-7.2,2.3-7.4,2.5c-0.4,0.4-0.6,0.5-0.7-0.1
		c-0.1-0.5-0.4-1.2-0.5-1.6s-0.4-0.7-1.2-0.6s-6,0.9-6.9,1.2c-0.8,0.2-0.6,0.6,0,0.7s3.4,0.4,3.4,5.2s0,10.1,0,10.1
		c0,5.9-1.2,6.3-2.2,6.7C60.3,39.6,61,40,61.6,40c0,0,10.4,0,10.7,0c0.7,0,1.1-0.7-0.4-0.9c-1.4-0.2-2.7-1.1-2.7-5.6
		c0-0.5,0-5.5,0-6.5c0-2.5-0.6-10,6.2-10.1c4.8-0.1,5.3,3.9,5.3,6.5v10c0,4.1-1.2,5.4-2.6,5.6c-1.3,0.2-1.1,0.8-0.4,0.8
		c0.2,0,10.9,0,10.9,0C89.3,39.9,89.9,39.4,88.4,39z M59.9,37.8c-0.5,1.1-1.4,1.4-2,1.4c-0.7,0-2.8-0.1-2.8-5.6c0,0,0-11.1,0-11.8
		c0-3.6-2.8-6.6-10.1-6.6c-7.9,0-8,3.9-8,4.8c-0.1,1.1,0.5,2.2,2.5,2.2c1.8,0,2.2-2,2.5-2.7c0.2-0.8,0.4-3.2,3.5-3.2
		c2.7,0,4.3,2.3,4.5,5.7c0,0.6,0,0.9,0,1.3c0,0.2,0,0.5-0.1,0.6V24l0,0c-0.2,1.2-0.8,1.8-1.9,2.2c-1.4,0.7-5.5,1.3-6,1.4
		c-1.6,0.4-6.2,1.5-6.1,6.3c0.1,4.7,4.8,6.3,8.1,6.2c3.2-0.1,5-1.4,5.9-2.1c0.5-0.4,0.5-0.4,0.8,0.1c0.5,0.5,2,2,5.6,2
		c3.8,0,4.2-1.8,4.5-2.3C60.9,37.6,60.1,37.2,59.9,37.8z M45.2,39.1c-3.3,0-4.1-2.7-4.1-4.1s0.7-4,4-5.9c0,0,1.5-0.9,4.5-2.1
		c0.1,0,0.2,0,0.2,0s0.1,0.1,0.1,0.2l0,0l0,0l0,0c0,0,0,0.1,0,0.2l0,0l0,0v0.1l0,0l0,0l0,0v4.9C49.9,36.3,48,39.1,45.2,39.1z
		 M34,28.9c-1.2,3.8-3.4,9.9-11.5,10.1C14,39.1,9,33.4,8.7,22.7C8.4,11.3,13.3,2.6,20.9,2.4C29.5,2.3,32.6,12.5,32.7,14
		c0.1,1.2,1.6,1.1,1.6-0.1c0-0.6-0.7-10.7-0.9-11.8S32.2,1.4,32,1.8c-0.1,0.4,0.1-0.4-0.4,0.7c-0.5,1.1-1.8,0.5-2.2,0.4
		C28,2.3,25.3,0.9,21,1C11,1.2,0.8,8.6,1,21.5C1.2,34.1,11.3,41.1,20.7,41c8.6-0.1,13.4-5.5,14.8-11.7C36,27.7,34.4,27.4,34,28.9z"
		/>
</g>
</svg>
